<svg width="45" height="40" viewBox="0 0 45 40" fill="none" xmlns="http://www.w3.org/2000/svg">
<path d="M0.558191 17.6262C-0.883399 13.9131 0.965703 9.73728 4.68828 8.29934L24.9092 0.48847C28.6318 -0.949471 32.8182 0.89495 34.2598 4.6081L38.8277 16.3738C40.2693 20.0869 38.4202 24.2627 34.6976 25.7007L14.4766 33.5115C10.7541 34.9495 6.56768 33.105 5.12609 29.3919L0.558191 17.6262Z" fill="#553004"/>
<path d="M4.07861 18C4.07861 13.5817 7.66943 10 12.0989 10H36.1598C40.5893 10 44.1801 13.5817 44.1801 18V32C44.1801 36.4183 40.5893 40 36.1598 40H12.0989C7.66943 40 4.07861 36.4183 4.07861 32V18Z" fill="#975202"/>
<g clip-path="url(#clip0_503_3148)">
<path d="M32.1497 23C32.1497 27.418 24.1294 35 24.1294 35C24.1294 35 16.1091 27.418 16.1091 23C16.1091 20.8783 16.9541 18.8434 18.4582 17.3431C19.9623 15.8429 22.0023 15 24.1294 15C26.2566 15 28.2966 15.8429 29.8006 17.3431C31.3047 18.8434 32.1497 20.8783 32.1497 23V23Z" stroke="white" stroke-width="1.5"/>
<path d="M24.1295 24C24.3954 24 24.6504 23.8946 24.8384 23.7071C25.0264 23.5196 25.132 23.2652 25.132 23C25.132 22.7348 25.0264 22.4804 24.8384 22.2929C24.6504 22.1054 24.3954 22 24.1295 22C23.8636 22 23.6086 22.1054 23.4206 22.2929C23.2326 22.4804 23.127 22.7348 23.127 23C23.127 23.2652 23.2326 23.5196 23.4206 23.7071C23.6086 23.8946 23.8636 24 24.1295 24Z" fill="white" stroke="white" stroke-width="1.5" stroke-linecap="round" stroke-linejoin="round"/>
</g>
<defs>
<clipPath id="clip0_503_3148">
<rect width="24.0609" height="24" fill="white" transform="translate(12.099 13)"/>
</clipPath>
</defs>
</svg>
