<svg width="44" height="40" viewBox="0 0 44 40" fill="none" xmlns="http://www.w3.org/2000/svg">
<path d="M0.48847 17.6262C-0.949471 13.9131 0.89495 9.73728 4.6081 8.29934L24.7779 0.48847C28.491 -0.949471 32.6668 0.89495 34.1047 4.6081L38.6611 16.3738C40.099 20.0869 38.2546 24.2627 34.5414 25.7007L14.3717 33.5115C10.6585 34.9495 6.48275 33.105 5.04481 29.3919L0.48847 17.6262Z" fill="#553004"/>
<path d="M4 18C4 13.5817 7.58172 10 12 10H36C40.4183 10 44 13.5817 44 18V32C44 36.4183 40.4183 40 36 40H12C7.58172 40 4 36.4183 4 32V18Z" fill="#975202"/>
<path d="M24 22C24 21 24.714 20 26.143 20C26.9007 20 27.6274 19.699 28.1632 19.1632C28.699 18.6274 29 17.9007 29 17.143V16.5M20 22V21.5C20 20.7044 20.3161 19.9413 20.8787 19.3787C21.4413 18.8161 22.2044 18.5 23 18.5V18.5C23.5304 18.5 24.0391 18.2893 24.4142 17.9142C24.7893 17.5391 25 17.0304 25 16.5V16M29 24.6V28C29 29.5913 28.3679 31.1174 27.2426 32.2426C26.1174 33.3679 24.5913 34 23 34H21C19.4087 34 17.8826 33.3679 16.7574 32.2426C15.6321 31.1174 15 29.5913 15 28V24.6C15 24.4409 15.0632 24.2883 15.1757 24.1757C15.2883 24.0632 15.4409 24 15.6 24H28.4C28.5591 24 28.7117 24.0632 28.8243 24.1757C28.9368 24.2883 29 24.4409 29 24.6V24.6Z" stroke="white" stroke-width="1.5" stroke-linecap="round" stroke-linejoin="round"/>
<path d="M28 24H30.5C31.163 24 31.7989 24.2634 32.2678 24.7322C32.7366 25.2011 33 25.837 33 26.5C33 27.163 32.7366 27.7989 32.2678 28.2678C31.7989 28.7366 31.163 29 30.5 29H29" stroke="white" stroke-width="1.5" stroke-linecap="round" stroke-linejoin="round"/>
</svg>
