<svg width="52" height="48" viewBox="0 0 52 48" fill="none" xmlns="http://www.w3.org/2000/svg">
<g filter="url(#filter0_d_503_3178)">
<path d="M4.48847 17.6262C3.05053 13.9131 4.89495 9.73728 8.6081 8.29934L28.7779 0.48847C32.491 -0.949471 36.6668 0.89495 38.1047 4.6081L42.6611 16.3738C44.099 20.0869 42.2546 24.2627 38.5414 25.7007L18.3717 33.5115C14.6585 34.9495 10.4827 33.105 9.04481 29.3919L4.48847 17.6262Z" fill="#553004"/>
<path d="M8 18C8 13.5817 11.5817 10 16 10H40C44.4183 10 48 13.5817 48 18V32C48 36.4183 44.4183 40 40 40H16C11.5817 40 8 36.4183 8 32V18Z" fill="#975202"/>
<path d="M19 19L18.25 16.5M27 32.5C27 32.8978 26.842 33.2794 26.5607 33.5607C26.2794 33.842 25.8978 34 25.5 34C25.1022 34 24.7206 33.842 24.4393 33.5607C24.158 33.2794 24 32.8978 24 32.5M33 32.5C33 32.8978 32.842 33.2794 32.5607 33.5607C32.2794 33.842 31.8978 34 31.5 34C31.1022 34 30.7206 33.842 30.4393 33.5607C30.158 33.2794 30 32.8978 30 32.5M19 19H38L35 29H22L19 19Z" stroke="white" stroke-width="1.5" stroke-linecap="round" stroke-linejoin="round"/>
</g>
<defs>
<filter id="filter0_d_503_3178" x="0" y="0" width="52" height="48" filterUnits="userSpaceOnUse" color-interpolation-filters="sRGB">
<feFlood flood-opacity="0" result="BackgroundImageFix"/>
<feColorMatrix in="SourceAlpha" type="matrix" values="0 0 0 0 0 0 0 0 0 0 0 0 0 0 0 0 0 0 127 0" result="hardAlpha"/>
<feOffset dy="4"/>
<feGaussianBlur stdDeviation="2"/>
<feComposite in2="hardAlpha" operator="out"/>
<feColorMatrix type="matrix" values="0 0 0 0 0 0 0 0 0 0 0 0 0 0 0 0 0 0 0.25 0"/>
<feBlend mode="normal" in2="BackgroundImageFix" result="effect1_dropShadow_503_3178"/>
<feBlend mode="normal" in="SourceGraphic" in2="effect1_dropShadow_503_3178" result="shape"/>
</filter>
</defs>
</svg>
