<svg width="64" height="57" viewBox="0 0 64 57" fill="none" xmlns="http://www.w3.org/2000/svg">
<path d="M12.7631 47.734C13.3307 47.7687 13.8049 48.0015 14.186 48.4322C14.5637 48.8591 14.729 49.3686 14.682 49.9606C14.6311 50.556 14.3427 51.0863 13.8167 51.5517C13.2906 52.017 12.7077 52.2337 12.0679 52.2018C11.4209 52.1694 10.8816 51.9093 10.45 51.4214C10.1836 51.1203 9.9927 50.7931 9.87731 50.4399C10.087 50.2545 10.3183 50.0974 10.5713 49.9686C10.6084 50.0106 10.6301 50.0389 10.6364 50.0537C10.4497 50.219 10.364 50.4102 10.3796 50.6275C10.3918 50.841 10.4822 51.043 10.6508 51.2336C11.0352 51.6681 11.4888 51.8851 12.0116 51.8847C12.5311 51.8804 13.029 51.6675 13.5055 51.246C13.9781 50.8279 14.2459 50.3701 14.3088 49.8728C14.3645 49.3751 14.2355 48.949 13.9219 48.5945C13.6083 48.24 13.2211 47.9982 12.7603 47.869L12.7631 47.734Z" fill="#6A462F"/>
<path d="M9.19122 42.0794C9.38456 41.7959 9.41659 41.48 9.2873 41.1317C9.15802 40.7835 8.93595 40.5727 8.62109 40.4996C8.29969 40.4235 7.93145 40.4625 7.51636 40.6165C7.0297 40.7972 6.68343 41.0343 6.47754 41.3279C6.26511 41.6184 6.22354 41.9379 6.35283 42.2862C6.48034 42.6297 6.71284 42.8392 7.05033 42.9148C7.38781 42.9904 7.7823 42.9417 8.23379 42.7687C8.67873 42.5926 8.99788 42.3629 9.19122 42.0794ZM6.12485 42.3301C5.96014 41.8864 5.98742 41.4772 6.20667 41.1027C6.42593 40.7282 6.78844 40.447 7.29418 40.2593C7.79515 40.0733 8.25506 40.0546 8.6739 40.2032C9.09097 40.3469 9.38275 40.643 9.54923 41.0915C9.71571 41.54 9.68843 41.9491 9.4674 42.3189C9.2446 42.6839 8.88271 42.9594 8.38174 43.1453C7.876 43.333 7.41459 43.355 6.99752 43.2113C6.57867 43.0628 6.28778 42.769 6.12485 42.3301Z" fill="#6A462F"/>
<path d="M4.63177 34.8863L4.53225 34.8845C4.47226 34.73 4.42436 34.5645 4.38858 34.3882L3.8475 34.4198C3.35468 34.4485 2.9825 34.3607 2.73096 34.1561C2.47912 33.9465 2.3449 33.6995 2.3283 33.4149C2.31169 33.1304 2.41132 32.8723 2.6272 32.6405C2.8358 32.6334 3.05067 32.6463 3.2718 32.6793C3.27507 32.7352 3.2734 32.7939 3.26679 32.8555C3.24139 32.857 3.21599 32.8584 3.19058 32.8599C2.76889 32.8845 2.56813 33.0696 2.5883 33.4151C2.60164 33.6437 2.68539 33.8121 2.83955 33.9204C2.98863 34.0289 3.23591 34.0731 3.58139 34.053L4.36634 34.0071C4.33995 33.555 4.30545 33.1823 4.26285 32.8891C4.37462 32.8826 4.46965 32.8949 4.54794 32.926L4.61021 33.9929L7.42994 33.8283C7.51224 33.5788 7.55197 33.2987 7.54912 32.9879C7.63549 32.9828 7.69421 32.9845 7.72529 32.9929L7.82582 34.7152C7.80579 34.7215 7.78054 34.7255 7.75005 34.7273C7.71957 34.729 7.6861 34.7234 7.64965 34.7102C7.61268 34.5135 7.56926 34.381 7.51938 34.3125C7.46442 34.2443 7.37852 34.2137 7.26166 34.2205L4.63245 34.374C4.62073 34.5225 4.6205 34.6933 4.63177 34.8863Z" fill="#6A462F"/>
<path d="M4.76098 28.1256L4.6649 28.0996C4.64433 27.9351 4.63815 27.763 4.64637 27.5832L4.11388 27.4821C3.62888 27.3901 3.28929 27.2142 3.09511 26.9546C2.90187 26.69 2.83183 26.4177 2.88498 26.1377C2.93813 25.8577 3.09762 25.6316 3.36343 25.4593C3.56748 25.5032 3.77273 25.5681 3.97918 25.6539C3.96874 25.7089 3.95283 25.7654 3.93144 25.8235C3.90644 25.8188 3.88144 25.814 3.85644 25.8093C3.44144 25.7305 3.20167 25.8611 3.13713 26.2011C3.09442 26.4261 3.13465 26.6099 3.25782 26.7524C3.37598 26.894 3.60507 26.997 3.94506 27.0616L4.71756 27.2082C4.80203 26.7632 4.85929 26.3934 4.88935 26.0986C4.99934 26.1195 5.08852 26.1546 5.15688 26.2038L4.95755 27.2538L7.73253 27.7806C7.87309 27.5586 7.97982 27.2966 8.05272 26.9944C8.13771 27.0105 8.19426 27.0265 8.22237 27.0421L7.9006 28.7371C7.87966 28.7383 7.85418 28.7361 7.82418 28.7304C7.79418 28.7247 7.76311 28.711 7.73095 28.6894C7.74297 28.4896 7.73312 28.3505 7.70141 28.272C7.6647 28.1925 7.58884 28.1418 7.47385 28.12L4.88637 27.6288C4.83884 27.77 4.79705 27.9356 4.76098 28.1256Z" fill="#6A462F"/>
<path d="M8.60821 19.4084C8.29513 19.2493 8.02398 19.2071 7.79475 19.282C7.56552 19.3568 7.394 19.5023 7.28017 19.7184C7.16634 19.9346 7.14068 20.1799 7.20318 20.4544C7.26806 20.7244 7.44613 20.9706 7.73738 21.193L8.1351 20.3067L8.60821 19.4084ZM8.09784 21.426C8.52563 21.6513 8.91196 21.7368 9.25686 21.6826C9.59725 21.6261 9.85874 21.4244 10.0413 21.0777C10.2239 20.731 10.2847 20.3316 10.2237 19.8795L10.3293 19.892C10.5278 20.4107 10.5085 20.8952 10.2713 21.3455C10.0911 21.6877 9.79474 21.9227 9.38227 22.0506C8.97218 22.174 8.51722 22.1041 8.01739 21.8409C7.74271 21.6962 7.51876 21.5208 7.34554 21.3145C7.16782 21.1059 7.05386 20.8963 7.00367 20.6858C6.89901 20.2511 6.93087 19.8738 7.09924 19.5541C7.26998 19.2299 7.52472 19.0247 7.86346 18.9385C8.19769 18.85 8.56519 18.9112 8.96596 19.1223C8.99226 19.1706 9.00754 19.2017 9.0118 19.2154L7.90552 21.3161C7.94368 21.3419 8.00779 21.3785 8.09784 21.426Z" fill="#6A462F"/>
<path d="M18.797 11.2943L20.1086 10.5743C20.3272 10.4543 20.4521 10.3276 20.4834 10.1943C20.5123 10.0566 20.4742 9.86556 20.3692 9.62133C20.4272 9.5895 20.4663 9.57091 20.4866 9.56557C20.6118 9.7407 20.7111 9.89518 20.7846 10.029C20.8556 10.1584 20.9121 10.2667 20.9542 10.3539L18.1436 11.8968C18.1053 11.8482 18.0841 11.7989 18.0799 11.7489C18.2327 11.636 18.3271 11.5436 18.363 11.4716C18.399 11.3996 18.39 11.3145 18.3362 11.2164L16.5067 7.88383C16.3138 7.90263 16.1426 7.95021 15.9929 8.02656C15.9611 7.96857 15.9398 7.91928 15.9291 7.87869L17.1203 7.22479C17.1512 7.26004 17.1725 7.30933 17.184 7.37266C17.0332 7.47868 16.9398 7.56768 16.9039 7.63966C16.8679 7.71165 16.8757 7.79449 16.9271 7.88818L18.797 11.2943Z" fill="#6A462F"/>
<path d="M27.036 7.56633C27.2725 7.81499 27.5746 7.91276 27.9423 7.85965C28.31 7.80655 28.5627 7.63378 28.7004 7.34136C28.8425 7.04317 28.8818 6.67497 28.8186 6.23675C28.7443 5.72298 28.5854 5.33457 28.3417 5.07153C28.1024 4.80272 27.7988 4.69487 27.4311 4.74798C27.0685 4.80036 26.8147 4.98356 26.6698 5.29759C26.5249 5.61161 26.4895 6.00752 26.5637 6.4853C26.6421 6.95732 26.7996 7.31767 27.036 7.56633ZM27.4362 4.51585C27.9046 4.4482 28.2988 4.56094 28.6188 4.8541C28.9389 5.14725 29.1374 5.56079 29.2145 6.09471C29.2909 6.62359 29.2125 7.07714 28.9791 7.45536C28.7508 7.83285 28.4 8.05579 27.9265 8.12418C27.453 8.19257 27.0588 8.07982 26.7438 7.78594C26.4339 7.49133 26.2407 7.07958 26.1643 6.5507C26.0872 6.01678 26.1628 5.56107 26.3911 5.18358C26.6244 4.80536 26.9728 4.58279 27.4362 4.51585Z" fill="#6A462F"/>
<path d="M35.1524 4.46025C35.1567 4.41437 35.1615 4.37897 35.1667 4.35406C35.1729 4.32416 35.1776 4.30174 35.1807 4.28679L36.5933 4.58038C36.5968 4.6383 36.5924 4.69715 36.58 4.75695C36.3317 4.72613 36.1355 4.73214 35.9915 4.77498L36.4509 7.77876C36.4866 7.68221 36.5302 7.5977 36.5816 7.52522L37.8754 5.5018C37.9238 5.44428 37.9531 5.3906 37.9635 5.34077C37.9748 5.28596 37.9697 5.23552 37.9481 5.18944C37.8999 5.09625 37.7403 5.01371 37.4694 4.9418C37.4559 4.88181 37.4603 4.82296 37.4827 4.76524L38.9103 5.06193C38.908 5.09785 38.8886 5.1536 38.8521 5.22918C38.6985 5.21804 38.5363 5.22331 38.3654 5.24498L36.4782 8.13529L36.2017 8.07781L35.6306 4.97288C35.6009 4.81596 35.5538 4.70481 35.4894 4.63945C35.4311 4.57014 35.3187 4.51041 35.1524 4.46025Z" fill="#6A462F"/>
<path d="M46.2482 9.50578C46.4284 9.20434 46.489 8.93671 46.4301 8.7029C46.3711 8.46908 46.2377 8.28799 46.0298 8.15963C45.822 8.03126 45.579 7.98886 45.3009 8.03241C45.0271 8.07865 44.7693 8.23943 44.5274 8.51477L45.3844 8.97226L46.2482 9.50578ZM44.2703 8.85843C44.0163 9.26977 43.9045 9.64934 43.9349 9.99714C43.968 10.3406 44.1513 10.6153 44.4847 10.8212C44.8181 11.0271 45.2124 11.1151 45.6675 11.0852L45.6478 11.1897C45.1168 11.3522 44.6348 11.2997 44.2018 11.0323C43.8727 10.8291 43.6585 10.5173 43.5591 10.0971C43.4641 9.67947 43.5651 9.23037 43.8619 8.74974C44.025 8.48561 44.2154 8.27421 44.4331 8.11552C44.6534 7.95251 44.8702 7.85318 45.0837 7.81751C45.5246 7.74288 45.8987 7.8005 46.2062 7.99037C46.5179 8.18292 46.7052 8.45112 46.768 8.79497C46.8334 9.13448 46.7472 9.49692 46.5092 9.88229C46.4591 9.90521 46.4271 9.91833 46.4131 9.92164L44.3931 8.67408C44.3647 8.71038 44.3238 8.77183 44.2703 8.85843Z" fill="#6A462F"/>
<path d="M52.1923 14.0817L52.1164 14.1457C52.4325 14.0391 52.7394 14.0203 53.0369 14.0891C53.3415 14.1586 53.5824 14.2984 53.7594 14.5086C53.7381 14.5465 53.7021 14.5868 53.6515 14.6294C53.6009 14.672 53.534 14.715 53.4508 14.7585C53.1853 14.4431 52.8492 14.2771 52.4425 14.2603C52.2013 14.2505 51.9681 14.3171 51.7427 14.4604L50.4464 15.552C50.5265 15.7972 50.6623 16.0455 50.8539 16.2966C50.7994 16.3425 50.7497 16.3744 50.7048 16.3922L49.5985 15.0784C49.6302 15.045 49.6766 15.0093 49.7377 14.9711C49.885 15.1066 49.9991 15.1868 50.08 15.2118C50.1682 15.2374 50.257 15.2125 50.3465 15.1371L52.291 13.4997C52.1998 13.3835 52.1263 13.2923 52.0706 13.2261C52.0182 13.1638 51.9772 13.1152 51.9477 13.0802C51.9866 13.0474 52.0285 13.0221 52.0734 13.0042C52.3909 13.1759 52.643 13.333 52.8294 13.4754C52.6733 13.6534 52.4609 13.8555 52.1923 14.0817Z" fill="#6A462F"/>
<path d="M54.3385 21.8896C54.4482 22.1471 54.5878 22.3255 54.7573 22.4247C54.9335 22.5267 55.1059 22.5417 55.2745 22.4699C55.443 22.3981 55.5493 22.245 55.5932 22.0105C55.6438 21.7787 55.6607 21.5392 55.6438 21.2919C55.6337 21.0473 55.6693 20.7998 55.7507 20.5494C55.8387 20.3017 56.0115 20.1229 56.269 20.0132C56.5265 19.9035 56.7718 19.9207 57.0047 20.0649C57.2423 20.2071 57.4199 20.4163 57.5376 20.6925C57.6553 20.9688 57.7285 21.2639 57.7572 21.5781C57.689 21.6127 57.5893 21.6579 57.4582 21.7138C57.3318 21.7676 57.1737 21.8184 56.9838 21.8661C56.9638 21.8193 56.9526 21.7799 56.95 21.7478C56.9941 21.7345 57.0349 21.7199 57.0723 21.7039C57.269 21.6202 57.3845 21.5018 57.4189 21.3488C57.458 21.1939 57.4307 21.0064 57.3369 20.7863C57.2452 20.5709 57.1152 20.4216 56.947 20.3384C56.7834 20.2532 56.622 20.2445 56.4629 20.3123C56.3037 20.3802 56.1952 20.4955 56.1373 20.6585C56.0815 20.8261 56.0521 21.0101 56.049 21.2106C56.0479 21.4157 56.0444 21.6219 56.0386 21.829C56.0375 22.0342 55.9964 22.2232 55.9151 22.3961C55.8359 22.5737 55.7097 22.6994 55.5364 22.7732C55.2461 22.8969 54.9715 22.8756 54.7126 22.7093C54.4584 22.541 54.2604 22.2907 54.1188 21.9583C53.9772 21.6258 53.892 21.2832 53.8634 20.9303C53.9718 20.873 54.0962 20.8145 54.2366 20.7547C54.3771 20.6948 54.5269 20.6504 54.686 20.6213C54.7059 20.6681 54.7186 20.7042 54.7238 20.7296C54.6891 20.7389 54.6553 20.7505 54.6225 20.7645C54.4025 20.8583 54.2715 21.0053 54.2297 21.2057C54.1945 21.4088 54.2307 21.6367 54.3385 21.8896Z" fill="#6A462F"/>
<path d="M60.9023 34.7088C60.8111 34.6997 60.7334 34.6588 60.669 34.5859C60.6098 34.5135 60.5849 34.4292 60.5945 34.3329C60.6036 34.2418 60.6443 34.1666 60.7167 34.1073C60.7942 34.0485 60.8785 34.0237 60.9696 34.0328C61.0658 34.0423 61.1436 34.0833 61.2029 34.1557C61.2621 34.2281 61.2872 34.3099 61.2782 34.401C61.2686 34.4973 61.2276 34.575 61.1552 34.6343C61.0828 34.6936 60.9985 34.7184 60.9023 34.7088ZM56.8669 33.7852L59.3889 34.0364C59.4086 33.89 59.4227 33.7738 59.4313 33.6877C59.4394 33.6067 59.4457 33.5434 59.4502 33.4978C59.5009 33.5029 59.5507 33.5155 59.5999 33.5357C59.6856 33.8563 59.7495 34.1644 59.7916 34.4601L56.6088 34.143C56.5223 34.293 56.4613 34.4685 56.4259 34.6695C56.355 34.6625 56.2976 34.6491 56.2535 34.6293L56.3942 33.2164C56.4403 33.2159 56.4983 33.2242 56.5682 33.2414C56.5688 33.4409 56.5883 33.5784 56.6268 33.6539C56.6704 33.7298 56.7505 33.7736 56.8669 33.7852Z" fill="#6A462F"/>
<path d="M56.4159 43.1299L54.4667 42.2905C54.3349 42.4166 54.2237 42.5654 54.1332 42.737C54.0817 42.7148 54.03 42.687 53.9779 42.6535L54.5396 41.3494C54.5837 41.3628 54.6364 41.3883 54.6978 41.4258C54.64 41.6115 54.6181 41.7461 54.6319 41.8297C54.6505 41.9153 54.7135 41.9812 54.821 42.0275L56.5528 42.7733C56.7959 42.878 57.0057 42.8991 57.1822 42.8366C57.3614 42.7808 57.4953 42.65 57.5839 42.4444C57.7751 42.0003 57.6706 41.5674 57.2704 41.1457L55.3213 40.3063C55.1934 40.423 55.0822 40.5718 54.9877 40.7528C54.9223 40.7246 54.8715 40.6944 54.8355 40.6623L55.3971 39.3582C55.4412 39.3716 55.494 39.3971 55.5554 39.4346C55.4956 39.625 55.4726 39.7619 55.4865 39.8455C55.505 39.9311 55.5681 39.997 55.6756 40.0433L58.0174 41.0518C58.0804 40.9183 58.129 40.8118 58.1633 40.7323C58.1955 40.6575 58.2206 40.5991 58.2387 40.557C58.2855 40.5772 58.3269 40.6033 58.3629 40.6354C58.3516 40.9963 58.324 41.2919 58.2801 41.5224C58.0878 41.4673 57.8494 41.384 57.5649 41.2725C57.951 41.727 58.0414 42.1926 57.8361 42.6693C57.7233 42.9311 57.5419 43.1079 57.2918 43.1996C57.0444 43.2981 56.7524 43.2749 56.4159 43.1299Z" fill="#6A462F"/>
<path d="M50.0215 48.3172C50.3214 47.9985 50.6894 47.8451 51.1254 47.857C51.5651 47.8725 51.9814 48.065 52.3742 48.4347C52.7671 48.8044 52.9832 49.2209 53.0225 49.6842C53.0582 50.1511 52.914 50.5569 52.5896 50.9016C52.2653 51.2463 51.9363 51.4399 51.6028 51.4824C51.41 51.3011 51.2424 51.1154 51.0998 50.9253L51.2002 50.852C51.3746 51.0231 51.573 51.0945 51.7953 51.0662C52.0179 51.045 52.2216 50.9362 52.4065 50.7398C52.6646 50.4655 52.7646 50.1438 52.7066 49.7748C52.6451 49.4094 52.4457 49.068 52.1084 48.7506C51.7711 48.4333 51.4255 48.2548 51.0715 48.2151C50.7139 48.1792 50.4096 48.2946 50.1585 48.5615C49.9039 48.832 49.7379 49.1755 49.6606 49.5919L49.5527 49.5952C49.555 49.3179 49.5875 49.0829 49.65 48.8901C49.7163 48.7009 49.8401 48.5099 50.0215 48.3172Z" fill="#6A462F"/>
<g clip-path="url(#clip0_502_2808)">
<path fill-rule="evenodd" clip-rule="evenodd" d="M34.6541 42.1555C34.6492 42.1583 34.6438 42.152 34.6479 42.1478C36.8642 39.6419 36.7779 34.7472 34.2177 30.3128C31.656 25.8758 27.4567 23.3537 24.1779 24.0238C24.1511 24.0298 24.137 23.9942 24.1607 23.9805C27.5662 22.0143 32.6762 24.4889 35.5739 29.5078C38.4716 34.5267 38.0596 40.1893 34.6541 42.1555Z" fill="#6A462F"/>
<path d="M34.6479 42.1479L34.9285 42.3962L34.6479 42.1479ZM33.893 30.5C35.1453 32.669 35.7866 34.9415 35.8493 36.9651C35.9121 38.9926 35.3935 40.7387 34.3667 41.8992L34.9283 42.3959C36.1179 41.0505 36.6648 39.0963 36.5982 36.9416C36.5318 34.7826 35.8501 32.3906 34.5422 30.1252L33.893 30.5ZM24.2525 24.3906C25.7715 24.0805 27.5434 24.5037 29.2694 25.5714C30.9916 26.637 32.6398 28.3294 33.893 30.5L34.5422 30.1252C33.2335 27.8585 31.5014 26.0713 29.664 24.9342C27.8299 23.7991 25.863 23.2968 24.1027 23.6567L24.2527 24.391L24.2525 24.3906ZM24.3481 24.3052C25.9115 23.4025 27.903 23.4977 29.8946 24.4618C31.8838 25.4256 33.8332 27.2423 35.2494 29.6952L35.8985 29.3205C34.4173 26.7549 32.3625 24.8246 30.2215 23.7876C28.0815 22.7516 25.8159 22.5923 23.9734 23.656L24.3481 24.3052ZM35.2494 29.6952C36.6658 32.1486 37.2646 34.7446 37.1041 36.9491C36.9434 39.1562 36.0301 40.9285 34.4667 41.8311L34.8415 42.4802C36.684 41.4164 37.6789 39.3741 37.8516 37.0034C38.0242 34.631 37.3801 31.8867 35.8985 29.3205L35.2494 29.6952ZM24.1029 23.657C24.1843 23.6411 24.2687 23.6546 24.3412 23.695C24.4137 23.7353 24.4695 23.8 24.4989 23.8776C24.5282 23.9552 24.5292 24.0407 24.5016 24.1189C24.474 24.1972 24.4197 24.2631 24.3481 24.3052L23.9734 23.656C23.8907 23.7036 23.8279 23.7794 23.7965 23.8694C23.765 23.9595 23.7671 24.0578 23.8022 24.1465C23.8624 24.3004 24.0358 24.4357 24.2529 24.3913L24.1029 23.657ZM34.3669 41.8995C34.0724 42.2327 34.4806 42.6886 34.8415 42.4802L34.4667 41.8311C34.8172 41.6287 35.2154 42.0717 34.9285 42.3962L34.3669 41.8995Z" fill="#6A462F"/>
<path fill-rule="evenodd" clip-rule="evenodd" d="M34.0918 41.182C34.0918 41.182 30.0471 38.6736 27.4599 34.1925C24.8816 29.7266 24.724 24.9865 24.7227 24.9543C24.7234 24.9773 24.804 27.3437 26.0913 29.5734C27.3848 31.8138 29.4073 33.0682 29.4073 33.0682C29.4073 33.0682 31.4295 34.3222 32.7232 36.563C34.0167 38.8034 34.0918 41.182 34.0918 41.182Z" fill="#6A462F"/>
<path d="M34.0919 41.182L33.8944 41.5003C33.952 41.5359 34.0182 41.5553 34.0859 41.5564C34.1536 41.5574 34.2204 41.5401 34.279 41.5062C34.3377 41.4723 34.3861 41.4232 34.4191 41.364C34.452 41.3048 34.4683 41.2378 34.4663 41.1701L34.0919 41.182ZM24.7228 24.9543L25.0973 24.9419C25.0941 24.8426 25.0515 24.7486 24.9789 24.6806C24.9064 24.6126 24.8098 24.5763 24.7105 24.5795C24.6111 24.5828 24.5171 24.6254 24.4492 24.6979C24.3812 24.7705 24.3449 24.867 24.3481 24.9664L24.7228 24.9543ZM27.1355 34.3798C28.455 36.6653 30.143 38.443 31.4967 39.6477C32.0415 40.1336 32.6097 40.5926 33.1992 41.0232C33.4101 41.1766 33.6248 41.3248 33.8431 41.4676L33.8801 41.4912L33.8899 41.4977L33.893 41.4994L33.8944 41.5003L34.0919 41.182C34.2892 40.8634 34.2897 40.8636 34.2897 40.8636L34.2878 40.8625L34.2803 40.8577L34.2485 40.8371C34.2058 40.8098 34.1634 40.7821 34.1213 40.754C33.9586 40.6448 33.7981 40.5324 33.6398 40.417C33.0704 40.0008 32.5215 39.5572 31.9952 39.0877C30.68 37.9175 29.052 36.2004 27.7846 34.0051L27.1355 34.3798ZM24.3481 24.9664C24.3498 25.0173 24.5099 29.8322 27.1355 34.3798L27.7846 34.0051C25.253 29.6203 25.0977 24.956 25.0973 24.9419L24.3481 24.9664ZM26.416 29.386C25.7982 28.3159 25.4674 27.2078 25.2916 26.3599C25.1159 25.5137 25.0971 24.9386 25.0973 24.9419L24.3481 24.9664C24.3492 25.0073 24.4325 27.4496 25.7667 29.7604L26.416 29.386ZM29.4073 33.0682C29.6046 32.7496 29.6046 32.7496 29.6046 32.7496L29.6017 32.7474C29.5762 32.7315 29.5511 32.7151 29.5262 32.6984C29.472 32.6622 29.3921 32.607 29.2915 32.534C29.0117 32.3295 28.7421 32.1116 28.4835 31.881C27.8355 31.3043 27.0366 30.4609 26.416 29.386L25.7667 29.7604C26.4394 30.9256 27.2986 31.8299 27.985 32.441C28.2621 32.6879 28.551 32.9211 28.8507 33.1399C28.9591 33.2188 29.0695 33.295 29.1817 33.3685L29.2013 33.3814C29.2037 33.3826 29.2071 33.3846 29.2071 33.3846L29.2086 33.3858L29.4073 33.0682ZM29.4073 33.0682L29.2095 33.3866L29.213 33.3889C29.2384 33.4049 29.2636 33.4212 29.2885 33.438C29.3425 33.4738 29.4224 33.529 29.523 33.602C29.7246 33.7488 30.008 33.9677 30.331 34.255C30.979 34.8316 31.7781 35.6754 32.3987 36.7503L33.0478 36.3756C32.3749 35.2101 31.5159 34.3061 30.8295 33.695C30.5524 33.4482 30.2635 33.2149 29.9638 32.9961C29.8491 32.9127 29.7323 32.8322 29.6134 32.7549L29.6074 32.7514L29.6059 32.7502L29.6046 32.7496L29.4073 33.0682ZM32.3987 36.7503C33.0193 37.8252 33.3503 38.9389 33.5254 39.7885C33.5959 40.1277 33.6499 40.4702 33.6872 40.8146C33.7003 40.9394 33.7102 41.0646 33.7169 41.1899L33.7173 41.1936L34.0919 41.182L34.4663 41.1701L34.466 41.169L34.4661 41.1668C34.4661 41.1668 34.466 41.1629 34.4662 41.1602L34.4651 41.1366C34.4639 41.1165 34.4626 41.0874 34.4601 41.0508C34.455 40.9767 34.4467 40.8702 34.4325 40.7361C34.3928 40.3672 34.3351 40.0005 34.2597 39.6372C34.0737 38.7363 33.7205 37.5407 33.0478 36.3756L32.3987 36.7503Z" fill="#6A462F"/>
<path d="M34.654 42.1557C38.0597 40.1894 38.4715 34.5268 35.5739 29.5079C32.6762 24.489 27.5664 22.0144 24.1607 23.9806C20.755 25.9469 20.3432 31.6095 23.2408 36.6284C26.1385 41.6473 31.2484 44.1219 34.654 42.1557Z" stroke="#6A462F" stroke-width="0.632776"/>
<path d="M29.4073 33.0682C29.4073 33.0682 27.3851 31.8141 26.0914 29.5734C24.7977 27.3327 24.7228 24.9543 24.7228 24.9543M29.4073 33.0682C29.4073 33.0682 31.4296 34.3223 32.7233 36.563C34.017 38.8037 34.0919 41.182 34.0919 41.182" stroke="#6A462F" stroke-width="0.316388" stroke-linecap="round" stroke-linejoin="round"/>
</g>
<path d="M28.2864 41.6571C31.5481 43.854 36.8168 41.7383 40.0542 36.9315C43.2917 32.1248 43.272 26.4473 40.0103 24.2505C36.7486 22.0536 31.48 24.1693 28.2425 28.976C25.0051 33.7828 25.0247 39.4603 28.2864 41.6571Z" fill="#FAFAFA"/>
<path fill-rule="evenodd" clip-rule="evenodd" d="M28.2864 41.6572C28.2817 41.6541 28.2851 41.6464 28.2906 41.6483C31.5151 42.5396 35.8751 40.3134 38.7355 36.0665C41.5976 31.8171 42.0204 26.9368 39.9789 24.285C39.9618 24.2635 39.9876 24.2352 40.0103 24.2505C43.2719 26.4473 43.2917 32.1249 40.0542 36.9316C36.8167 41.7383 31.548 43.854 28.2864 41.6572Z" fill="#6A462F"/>
<path d="M28.2906 41.6483L28.1907 42.0094L28.2906 41.6483ZM38.4249 35.8569C37.0258 37.9342 35.2655 39.5079 33.4748 40.4526C31.6806 41.399 29.8841 41.6995 28.3907 41.2865L28.1909 42.0091C29.922 42.4873 31.9178 42.1209 33.8246 41.1152C35.7354 40.1077 37.5853 38.4452 39.0466 36.2756L38.4249 35.8569ZM39.6822 24.513C40.6276 25.7417 41.0252 27.5196 40.8236 29.539C40.6221 31.5541 39.8251 33.778 38.4249 35.8569L39.0466 36.2756C40.5087 34.1047 41.3543 31.7639 41.5693 29.6138C41.784 27.4676 41.372 25.4799 40.2759 24.0562L39.682 24.5133L39.6822 24.513ZM39.801 24.5614C41.2982 25.5699 42.0869 27.401 42.0949 29.6136C42.1022 31.824 41.3257 34.373 39.7434 36.7223L40.365 37.141C42.02 34.6839 42.8523 31.9903 42.8443 29.6114C42.8357 27.2339 41.9843 25.1282 40.2197 23.9397L39.801 24.5614ZM39.7434 36.7223C38.1609 39.0719 36.0911 40.7495 34.04 41.573C31.9864 42.3975 29.9931 42.3549 28.4958 41.3464L28.0771 41.9681C29.8417 43.1566 32.1134 43.154 34.3193 42.2685C36.5267 41.3822 38.7097 39.5988 40.365 37.141L39.7434 36.7223ZM40.2757 24.0565C40.3257 24.1227 40.3506 24.2045 40.3462 24.2873C40.3417 24.3701 40.3081 24.4487 40.2513 24.5092C40.1944 24.5696 40.1181 24.608 40.0357 24.6176C39.9532 24.6271 39.8701 24.6072 39.801 24.5614L40.2197 23.9397C40.1406 23.8863 40.045 23.8632 39.9503 23.8745C39.8556 23.8857 39.7681 23.9307 39.7038 24.0012C39.592 24.1229 39.5465 24.3381 39.6818 24.5136L40.2757 24.0565ZM28.3905 41.2868C27.9618 41.1684 27.7314 41.7353 28.0771 41.9681L28.4958 41.3464C28.8315 41.5725 28.6082 42.1247 28.1907 42.0094L28.3905 41.2868Z" fill="#6A462F"/>
<path fill-rule="evenodd" clip-rule="evenodd" d="M28.9145 40.7248C28.9145 40.7248 29.3928 35.9895 32.2833 31.6978C35.1641 27.4207 39.3539 25.1983 39.3822 25.1831C39.3619 25.1938 37.271 26.305 35.8328 28.4404C34.3876 30.5861 34.1483 32.9539 34.1483 32.9539C34.1483 32.9539 33.9093 35.3214 32.4639 37.4674C31.0187 39.6131 28.9145 40.7248 28.9145 40.7248Z" fill="#6A462F"/>
<path d="M28.9145 40.7247L28.5418 40.687C28.5351 40.7544 28.5467 40.8223 28.5755 40.8837C28.6043 40.945 28.6492 40.9973 28.7054 41.0352C28.7616 41.073 28.8269 41.0949 28.8946 41.0986C28.9622 41.1022 29.0296 41.0874 29.0895 41.0558L28.9145 40.7247ZM39.3822 25.183L39.5578 25.5141C39.6456 25.4675 39.7114 25.388 39.7406 25.293C39.7698 25.198 39.7601 25.0952 39.7136 25.0074C39.667 24.9196 39.5875 24.8538 39.4925 24.8246C39.3975 24.7954 39.2947 24.8051 39.2069 24.8516L39.3822 25.183ZM31.9725 31.4884C30.4983 33.6773 29.642 35.9743 29.1539 37.7194C28.9565 38.4222 28.7934 39.1342 28.6653 39.8529C28.6201 40.1098 28.5812 40.3677 28.5487 40.6265L28.5437 40.6701L28.5422 40.6818L28.542 40.6853L28.5418 40.687L28.9145 40.7247C29.2874 40.7621 29.2875 40.7626 29.2875 40.7626L29.2876 40.7604L29.2885 40.7516L29.2931 40.714C29.2989 40.6637 29.3052 40.6134 29.312 40.5632C29.3387 40.3691 29.3692 40.1756 29.4034 39.9827C29.5274 39.2884 29.685 38.6005 29.8758 37.9215C30.3499 36.226 31.1781 34.0096 32.5942 31.9071L31.9725 31.4884ZM39.2069 24.8516C39.1619 24.8755 34.906 27.133 31.9725 31.4884L32.5942 31.9071C35.4226 27.7077 39.5453 25.5206 39.5578 25.5141L39.2069 24.8516ZM36.1436 28.6497C36.8339 27.6249 37.6843 26.8413 38.369 26.3111C39.0522 25.7817 39.5607 25.5124 39.5578 25.5141L39.2069 24.8516C39.1706 24.8706 37.0128 26.0176 35.5222 28.2307L36.1436 28.6497ZM34.1484 32.9538C34.5212 32.9913 34.5212 32.9913 34.5212 32.9913L34.5219 32.9876C34.525 32.9578 34.5287 32.928 34.5328 32.8983C34.5415 32.8337 34.556 32.7377 34.5775 32.6153C34.6383 32.2742 34.7158 31.9362 34.8095 31.6026C35.0432 30.7673 35.4503 29.6792 36.1436 28.6497L35.5222 28.2307C34.7706 29.3466 34.3353 30.5155 34.0875 31.4006C33.9873 31.7579 33.9046 32.1198 33.8396 32.4852C33.8163 32.6173 33.7962 32.7499 33.7795 32.883L33.7765 32.9063C33.7765 32.909 33.7761 32.9128 33.7761 32.9128L33.7757 32.9148L34.1484 32.9538ZM34.1484 32.9538L33.7754 32.9159L33.7749 32.9201C33.7717 32.9499 33.7681 32.9797 33.7639 33.0094C33.7554 33.0737 33.7409 33.1697 33.7195 33.2921C33.6761 33.5376 33.6039 33.8884 33.4874 34.3048C33.2538 35.1401 32.8465 36.2285 32.1531 37.258L32.7748 37.6767C33.5266 36.5605 33.9617 35.3919 34.2094 34.5068C34.3096 34.1495 34.3924 33.7876 34.4573 33.4222C34.482 33.2825 34.503 33.1422 34.5203 33.0014L34.5208 32.9946L34.5212 32.9926L34.5212 32.9913L34.1484 32.9538ZM32.1531 37.258C31.4597 38.2875 30.6044 39.0737 29.9178 39.604C29.644 39.8163 29.3601 40.0151 29.067 40.1998C28.9606 40.2664 28.8525 40.3302 28.7428 40.3913L28.7397 40.3932L28.9145 40.7247L29.0895 41.0558L29.0905 41.0551L29.0924 41.0542C29.0924 41.0542 29.0959 41.0524 29.0984 41.0514L29.1191 41.0401C29.1366 41.0302 29.1623 41.0163 29.194 40.9979C29.2584 40.9608 29.3504 40.9067 29.4646 40.835C29.7787 40.6374 30.0829 40.4246 30.3762 40.1974C31.104 39.6347 32.0232 38.7926 32.7748 37.6767L32.1531 37.258Z" fill="#6A462F"/>
<path d="M28.2864 41.6571C31.5481 43.854 36.8168 41.7383 40.0542 36.9315C43.2917 32.1248 43.272 26.4473 40.0103 24.2505C36.7486 22.0536 31.48 24.1693 28.2425 28.976C25.0051 33.7828 25.0247 39.4603 28.2864 41.6571Z" stroke="#6A462F" stroke-width="0.632776"/>
<path d="M34.1483 32.9538C34.1483 32.9538 34.3874 30.5863 35.8328 28.4403C37.2782 26.2943 39.3822 25.1829 39.3822 25.1829M34.1483 32.9538C34.1483 32.9538 33.9093 35.3213 32.4639 37.4673C31.0185 39.6133 28.9144 40.7246 28.9144 40.7246" stroke="#6A462F" stroke-width="0.316388" stroke-linecap="round" stroke-linejoin="round"/>
<defs>
<clipPath id="clip0_502_2808">
<rect width="26.9829" height="26.9829" fill="white" transform="translate(10.9777 28.1299) rotate(-30)"/>
</clipPath>
</defs>
</svg>
