<svg width="217" height="91" viewBox="0 0 217 91" fill="none" xmlns="http://www.w3.org/2000/svg">
<mask id="path-1-inside-1_503_3519" fill="white">
<path d="M22.3051 10.262L39.7173 16.4396C40.0123 16.5427 40.2585 16.7453 40.4224 17.0198C40.5862 17.2942 40.6598 17.6271 40.633 17.9733L40.6109 18.1218C40.5627 18.4412 40.4321 18.7512 40.2339 19.0159C40.0358 19.2806 39.7783 19.4894 39.4911 19.6181L31.5307 23.1509C31.4509 23.1855 31.3662 23.1945 31.2878 23.1766C31.2094 23.1586 31.1411 23.1147 31.0921 23.0507L26.868 17.44C26.8093 17.3524 26.7328 17.2809 26.6433 17.2297C26.5537 17.1786 26.453 17.1489 26.3471 17.1424C26.2412 17.1359 26.1325 17.1529 26.0274 17.1922C25.9223 17.2315 25.8232 17.2923 25.7359 17.371C25.6486 17.4497 25.5751 17.5446 25.5197 17.6499C25.4644 17.7553 25.4284 17.8688 25.4139 17.9838C25.3995 18.0988 25.4068 18.2127 25.4356 18.3186C25.4643 18.4246 25.5139 18.5204 25.5812 18.6003L29.8151 24.2113C29.8631 24.2762 29.8895 24.358 29.8905 24.4456C29.8916 24.5332 29.8673 24.6226 29.821 24.7017L25.1555 32.5347C24.9732 32.8413 24.7169 33.0952 24.4182 33.2649C24.1196 33.4347 23.7917 33.5128 23.4752 33.4897C23.1503 33.4598 22.8557 33.3191 22.6334 33.0877C22.4112 32.8563 22.2725 32.5459 22.2371 32.2008L20.0241 12.2728C19.9842 11.9242 20.0515 11.5568 20.2162 11.2234C20.381 10.89 20.6347 10.608 20.9409 10.4179C21.1573 10.2907 21.3908 10.2111 21.626 10.1842C21.8612 10.1573 22.0927 10.1838 22.3051 10.262Z"/>
</mask>
<path d="M22.3051 10.262L39.7173 16.4396C40.0123 16.5427 40.2585 16.7453 40.4224 17.0198C40.5862 17.2942 40.6598 17.6271 40.633 17.9733L40.6109 18.1218C40.5627 18.4412 40.4321 18.7512 40.2339 19.0159C40.0358 19.2806 39.7783 19.4894 39.4911 19.6181L31.5307 23.1509C31.4509 23.1855 31.3662 23.1945 31.2878 23.1766C31.2094 23.1586 31.1411 23.1147 31.0921 23.0507L26.868 17.44C26.8093 17.3524 26.7328 17.2809 26.6433 17.2297C26.5537 17.1786 26.453 17.1489 26.3471 17.1424C26.2412 17.1359 26.1325 17.1529 26.0274 17.1922C25.9223 17.2315 25.8232 17.2923 25.7359 17.371C25.6486 17.4497 25.5751 17.5446 25.5197 17.6499C25.4644 17.7553 25.4284 17.8688 25.4139 17.9838C25.3995 18.0988 25.4068 18.2127 25.4356 18.3186C25.4643 18.4246 25.5139 18.5204 25.5812 18.6003L29.8151 24.2113C29.8631 24.2762 29.8895 24.358 29.8905 24.4456C29.8916 24.5332 29.8673 24.6226 29.821 24.7017L25.1555 32.5347C24.9732 32.8413 24.7169 33.0952 24.4182 33.2649C24.1196 33.4347 23.7917 33.5128 23.4752 33.4897C23.1503 33.4598 22.8557 33.3191 22.6334 33.0877C22.4112 32.8563 22.2725 32.5459 22.2371 32.2008L20.0241 12.2728C19.9842 11.9242 20.0515 11.5568 20.2162 11.2234C20.381 10.89 20.6347 10.608 20.9409 10.4179C21.1573 10.2907 21.3908 10.2111 21.626 10.1842C21.8612 10.1573 22.0927 10.1838 22.3051 10.262Z" fill="white"/>
<path d="M39.7173 16.4396L39.3058 17.4142L39.3094 17.4154L39.7173 16.4396ZM40.633 17.9733L41.5956 18.0061L41.6014 17.9675L41.6044 17.9288L40.633 17.9733ZM40.6109 18.1218L41.5732 18.1568L41.5735 18.1546L40.6109 18.1218ZM39.4911 19.6181L39.7715 20.5543L39.7749 20.5527L39.4911 19.6181ZM31.5307 23.1509L31.803 24.0907L31.8111 24.0871L31.5307 23.1509ZM31.0921 23.0507L30.299 23.7448L30.3033 23.7504L31.0921 23.0507ZM26.868 17.44L26.0481 18.0963L26.0611 18.1156L26.075 18.1341L26.868 17.44ZM25.5812 18.6003L26.3736 17.9054L26.3599 17.8872L26.3453 17.8699L25.5812 18.6003ZM29.8151 24.2113L30.6123 23.5227L30.6075 23.5164L29.8151 24.2113ZM29.821 24.7017L30.6295 25.1633L30.634 25.1556L29.821 24.7017ZM25.1555 32.5347L24.3471 32.0731L24.3466 32.0738L25.1555 32.5347ZM23.4752 33.4897L23.2715 34.5097L23.2799 34.5105L23.2884 34.5111L23.4752 33.4897ZM22.2371 32.2008L23.2064 31.9677L23.2054 31.9591L22.2371 32.2008ZM20.0241 12.2728L20.9924 12.0311L20.992 12.0277L20.0241 12.2728ZM20.9409 10.4179L20.5496 9.53874L20.5378 9.54567L20.5262 9.55289L20.9409 10.4179ZM21.8937 11.2366L39.3058 17.4142L40.1287 15.465L22.7166 9.28738L21.8937 11.2366ZM39.3094 17.4154C39.4197 17.454 39.5143 17.5306 39.5783 17.6379L41.2664 16.4016C41.0027 15.96 40.605 15.6315 40.1252 15.4637L39.3094 17.4154ZM39.5783 17.6379C39.6425 17.7454 39.6725 17.878 39.6616 18.0179L41.6044 17.9288C41.6471 17.3763 41.5299 16.843 41.2664 16.4016L39.5783 17.6379ZM39.6704 17.9405L39.6483 18.0889L41.5735 18.1546L41.5956 18.0061L39.6704 17.9405ZM39.6486 18.0867C39.629 18.217 39.5758 18.3422 39.4967 18.4479L40.9712 19.584C41.2883 19.1602 41.4965 18.6655 41.5732 18.1568L39.6486 18.0867ZM39.4967 18.4479C39.4178 18.5534 39.3169 18.6342 39.2072 18.6834L39.7749 20.5527C40.2397 20.3445 40.6539 20.0079 40.9712 19.584L39.4967 18.4479ZM39.2107 18.6819L31.2503 22.2147L31.8111 24.0871L39.7715 20.5543L39.2107 18.6819ZM31.2585 22.2111C31.3715 22.162 31.4928 22.149 31.6053 22.1747L30.9703 24.1784C31.2396 24.2399 31.5304 24.2089 31.803 24.0906L31.2585 22.2111ZM31.6053 22.1747C31.7176 22.2003 31.8133 22.2628 31.8808 22.351L30.3033 23.7504C30.4689 23.9666 30.7012 24.117 30.9703 24.1784L31.6053 22.1747ZM31.885 22.3565L27.661 16.7459L26.075 18.1341L30.2991 23.7448L31.885 22.3565ZM27.6879 16.7837C27.5579 16.5899 27.388 16.4305 27.1877 16.316L26.0989 18.1434C26.0777 18.1313 26.0607 18.115 26.0481 18.0963L27.6879 16.7837ZM27.1877 16.316C26.9874 16.2016 26.7613 16.1348 26.5233 16.1203L26.1709 18.1645C26.1446 18.1629 26.1201 18.1555 26.0989 18.1434L27.1877 16.316ZM26.5233 16.1203C26.2853 16.1058 26.0411 16.1439 25.8059 16.2319L26.2489 18.1524C26.2238 18.1618 26.1972 18.1661 26.1709 18.1645L26.5233 16.1203ZM25.8059 16.2319C25.5706 16.3199 25.3497 16.4557 25.1563 16.6301L26.3154 18.1119C26.2966 18.1289 26.2741 18.143 26.2489 18.1524L25.8059 16.2319ZM25.1563 16.6301C24.963 16.8044 24.8011 17.0137 24.6796 17.2448L26.3599 18.055C26.3491 18.0754 26.3343 18.0949 26.3154 18.1119L25.1563 16.6301ZM24.6796 17.2448C24.5582 17.4759 24.4795 17.7245 24.4479 17.9758L26.38 17.9918C26.3773 18.0132 26.3706 18.0346 26.3599 18.055L24.6796 17.2448ZM24.4479 17.9758C24.4163 18.227 24.4323 18.4764 24.4955 18.7091L26.3757 17.9282C26.3814 17.9489 26.3826 17.9705 26.38 17.9918L24.4479 17.9758ZM24.4955 18.7091C24.5586 18.9418 24.6677 19.1534 24.8171 19.3306L26.3453 17.8699C26.3601 17.8874 26.3701 17.9074 26.3757 17.9282L24.4955 18.7091ZM24.7888 19.2951L29.0226 24.9061L30.6075 23.5164L26.3736 17.9054L24.7888 19.2951ZM29.0179 24.8998C28.952 24.8108 28.9174 24.7009 28.916 24.5858L30.865 24.3054C30.8615 24.015 30.7742 23.7417 30.6122 23.5228L29.0179 24.8998ZM28.916 24.5858C28.9146 24.4707 28.9464 24.353 29.008 24.2477L30.634 25.1556C30.7883 24.8921 30.8685 24.5958 30.865 24.3054L28.916 24.5858ZM29.0126 24.24L24.3471 32.0731L25.964 32.9963L30.6294 25.1633L29.0126 24.24ZM24.3466 32.0738C24.2694 32.2037 24.1624 32.3086 24.0409 32.3777L24.7955 34.1522C25.2713 33.8818 25.677 33.4789 25.9644 32.9956L24.3466 32.0738ZM24.0409 32.3777C23.9195 32.4466 23.788 32.4776 23.6621 32.4684L23.2884 34.5111C23.7954 34.5481 24.3196 34.4227 24.7955 34.1522L24.0409 32.3777ZM23.679 32.4698C23.5583 32.4586 23.447 32.4063 23.3616 32.3174L21.9053 33.858C22.2644 34.2319 22.7423 34.461 23.2715 34.5097L23.679 32.4698ZM23.3616 32.3174C23.276 32.2283 23.2205 32.1065 23.2063 31.9677L21.2679 32.4338C21.3244 32.9853 21.5463 33.4842 21.9053 33.858L23.3616 32.3174ZM23.2054 31.9591L20.9924 12.0311L19.0558 12.5145L21.2689 32.4424L23.2054 31.9591ZM20.992 12.0277C20.9758 11.8862 21.0032 11.7368 21.0699 11.6019L19.3626 10.8449C19.0997 11.3767 18.9926 11.9622 19.0562 12.5179L20.992 12.0277ZM21.0699 11.6019C21.1365 11.4672 21.2375 11.3563 21.3557 11.2829L20.5262 9.55289C20.032 9.85968 19.6255 10.3129 19.3626 10.8449L21.0699 11.6019ZM21.3322 11.2971C21.4211 11.2448 21.516 11.2127 21.6107 11.2019L21.6413 9.16652C21.2657 9.20947 20.8935 9.33664 20.5496 9.53874L21.3322 11.2971ZM21.6107 11.2019C21.7054 11.191 21.7987 11.2017 21.8846 11.2333L22.7257 9.29065C22.3868 9.16596 22.0171 9.12357 21.6413 9.16652L21.6107 11.2019Z" fill="white" mask="url(#path-1-inside-1_503_3519)"/>
<path d="M208.743 65.6492C214.278 21.7523 159.984 14.1081 142.368 32.9174M32.1353 23.3013C84.9668 117.362 119.908 4.15493 142.368 32.9174M142.368 32.9174C162.048 44.0591 162.02 87.0309 139.152 90.2415C116.285 93.452 106.568 60.0648 142.368 32.9174Z" stroke="white" stroke-dasharray="6 6"/>
</svg>
