<svg width="56" height="56" viewBox="0 0 56 56" fill="none" xmlns="http://www.w3.org/2000/svg">
<path d="M18.6667 44.3333C19.9043 44.3333 21.0913 43.8417 21.9665 42.9665C22.8417 42.0913 23.3333 40.9043 23.3333 39.6667C23.3333 38.429 22.8417 37.242 21.9665 36.3668C21.0913 35.4917 19.9043 35 18.6667 35C17.429 35 16.242 35.4917 15.3668 36.3668C14.4917 37.242 14 38.429 14 39.6667C14 40.9043 14.4917 42.0913 15.3668 42.9665C16.242 43.8417 17.429 44.3333 18.6667 44.3333V44.3333ZM42 44.3333C43.2377 44.3333 44.4247 43.8417 45.2998 42.9665C46.175 42.0913 46.6667 40.9043 46.6667 39.6667C46.6667 38.429 46.175 37.242 45.2998 36.3668C44.4247 35.4917 43.2377 35 42 35C40.7623 35 39.5753 35.4917 38.7002 36.3668C37.825 37.242 37.3333 38.429 37.3333 39.6667C37.3333 40.9043 37.825 42.0913 38.7002 42.9665C39.5753 43.8417 40.7623 44.3333 42 44.3333V44.3333Z" stroke="#4E5B3E" stroke-width="3.5" stroke-miterlimit="1.5" stroke-linecap="round" stroke-linejoin="round"/>
<path d="M23.45 39.6667H35V15.4C35 15.0287 34.8525 14.6726 34.59 14.4101C34.3274 14.1475 33.9713 14 33.6 14H2.33337M13.1834 39.6667H8.40004C8.21619 39.6667 8.03414 39.6305 7.86428 39.5601C7.69443 39.4897 7.54009 39.3866 7.41009 39.2566C7.28009 39.1266 7.17697 38.9723 7.10661 38.8024C7.03625 38.6326 7.00004 38.4505 7.00004 38.2667V26.8333" stroke="#4E5B3E" stroke-width="3.5" stroke-linecap="round"/>
<path d="M4.66675 21H14.0001" stroke="#4E5B3E" stroke-width="3.5" stroke-linecap="round" stroke-linejoin="round"/>
<path d="M35 21H48.09C48.3606 21.0001 48.6254 21.0786 48.8523 21.226C49.0793 21.3734 49.2586 21.5834 49.3687 21.8307L53.5453 31.2293C53.6249 31.4078 53.6662 31.6009 53.6667 31.7963V38.2667C53.6667 38.4505 53.6305 38.6326 53.5601 38.8024C53.4897 38.9723 53.3866 39.1266 53.2566 39.2566C53.1266 39.3866 52.9723 39.4897 52.8024 39.5601C52.6326 39.6305 52.4505 39.6667 52.2667 39.6667H47.8333M35 39.6667H37.3333" stroke="#4E5B3E" stroke-width="3.5" stroke-linecap="round"/>
</svg>
