<svg width="106" height="30" viewBox="0 0 106 30" fill="none" xmlns="http://www.w3.org/2000/svg">
<path d="M15 20C16.3261 20 17.5979 19.4732 18.5355 18.5355C19.4732 17.5979 20 16.3261 20 15C20 13.6739 19.4732 12.4021 18.5355 11.4645C17.5979 10.5268 16.3261 10 15 10C13.6739 10 12.4021 10.5268 11.4645 11.4645C10.5268 12.4021 10 13.6739 10 15C10 16.3261 10.5268 17.5979 11.4645 18.5355C12.4021 19.4732 13.6739 20 15 20V20Z" stroke="white" stroke-width="1.5" stroke-linecap="round" stroke-linejoin="round"/>
<path d="M3.75 20V10C3.75 8.3424 4.40848 6.75269 5.58058 5.58058C6.75269 4.40848 8.3424 3.75 10 3.75H20C21.6576 3.75 23.2473 4.40848 24.4194 5.58058C25.5915 6.75269 26.25 8.3424 26.25 10V20C26.25 21.6576 25.5915 23.2473 24.4194 24.4194C23.2473 25.5915 21.6576 26.25 20 26.25H10C8.3424 26.25 6.75269 25.5915 5.58058 24.4194C4.40848 23.2473 3.75 21.6576 3.75 20Z" stroke="white" stroke-width="1.5"/>
<path d="M21.875 8.13729L21.8875 8.12354" stroke="white" stroke-width="1.5" stroke-linecap="round" stroke-linejoin="round"/>
<path d="M64.25 10V20C64.25 21.6576 63.5915 23.2473 62.4194 24.4194C61.2473 25.5915 59.6576 26.25 58 26.25H48C46.3424 26.25 44.7527 25.5915 43.5806 24.4194C42.4085 23.2473 41.75 21.6576 41.75 20V10C41.75 8.3424 42.4085 6.75269 43.5806 5.58058C44.7527 4.40848 46.3424 3.75 48 3.75H58C59.6576 3.75 61.2473 4.40848 62.4194 5.58058C63.5915 6.75269 64.25 8.3424 64.25 10Z" stroke="white" stroke-width="1.5" stroke-linecap="round" stroke-linejoin="round"/>
<path d="M50.5 15C49.7583 15 49.0333 15.2199 48.4166 15.632C47.7999 16.044 47.3193 16.6297 47.0355 17.3149C46.7516 18.0002 46.6774 18.7542 46.8221 19.4816C46.9668 20.209 47.3239 20.8772 47.8484 21.4017C48.3728 21.9261 49.041 22.2833 49.7684 22.4279C50.4958 22.5726 51.2498 22.4984 51.9351 22.2145C52.6203 21.9307 53.206 21.4501 53.618 20.8334C54.0301 20.2167 54.25 19.4917 54.25 18.75V7.5C54.6663 8.75 56.25 11.25 59.25 11.25" stroke="white" stroke-width="1.5" stroke-linecap="round" stroke-linejoin="round"/>
<path d="M93.5 15L89.125 17.5V12.5L93.5 15Z" fill="white" stroke="white" stroke-width="1.5" stroke-linecap="round" stroke-linejoin="round"/>
<path d="M78.5 15.8838V14.115C78.5 10.4963 78.5 8.68625 79.6312 7.5225C80.7637 6.3575 82.5463 6.3075 86.11 6.20625C87.7975 6.15875 89.5225 6.125 91 6.125C92.4762 6.125 94.2012 6.15875 95.89 6.20625C99.4537 6.3075 101.236 6.3575 102.367 7.5225C103.5 8.68625 103.5 10.4975 103.5 14.115V15.8838C103.5 19.5038 103.5 21.3125 102.369 22.4775C101.236 23.6413 99.455 23.6925 95.89 23.7925C94.2025 23.8413 92.4775 23.875 91 23.875C89.3697 23.8701 87.7395 23.8426 86.11 23.7925C82.5463 23.6925 80.7637 23.6425 79.6312 22.4775C78.5 21.3125 78.5 19.5025 78.5 15.885V15.8838Z" stroke="white" stroke-width="1.5"/>
</svg>
