<svg width="50" height="46" viewBox="0 0 50 46" fill="none" xmlns="http://www.w3.org/2000/svg">
<path d="M44.7983 2H35.4836L36.6503 13.6667C36.6503 13.6667 38.9836 16 42.4836 16C44.3209 16.0024 46.0958 15.3336 47.4746 14.1193C47.6204 13.9831 47.729 13.812 47.7902 13.6222C47.8515 13.4323 47.8633 13.23 47.8246 13.0343L46.1773 3.16667C46.1222 2.84069 45.9535 2.54472 45.7011 2.33119C45.4487 2.11766 45.1289 2.00034 44.7983 2V2Z" stroke="#4E5B3E" stroke-width="3.5"/>
<path d="M35.4836 2L36.6503 13.6667C36.6503 13.6667 34.317 16 30.817 16C27.317 16 24.9836 13.6667 24.9836 13.6667V2H35.4836Z" stroke="#4E5B3E" stroke-width="3.5"/>
<path d="M24.9837 2V13.6667C24.9837 13.6667 22.6504 16 19.1504 16C15.6504 16 13.317 13.6667 13.317 13.6667L14.4837 2H24.9837Z" stroke="#4E5B3E" stroke-width="3.5"/>
<path d="M14.4837 2H5.17132C4.83997 1.99988 4.51932 2.11728 4.2664 2.33133C4.01347 2.54538 3.84466 2.8422 3.78999 3.169L2.14498 13.0367C2.10654 13.2324 2.11849 13.4346 2.17972 13.6244C2.24094 13.8142 2.34943 13.9853 2.49499 14.1217C3.26032 14.7983 4.97065 16.0023 7.48365 16.0023C10.9837 16.0023 13.317 13.669 13.317 13.669L14.4837 2.00233V2Z" stroke="#4E5B3E" stroke-width="3.5"/>
<path d="M4 16V39.3333C4 40.571 4.49167 41.758 5.36683 42.6332C6.242 43.5083 7.42899 44 8.66667 44H41.3333C42.571 44 43.758 43.5083 44.6332 42.6332C45.5083 41.758 46 40.571 46 39.3333V16" stroke="#4E5B3E" stroke-width="3.5"/>
<path d="M31.6104 44V30C31.6104 28.7624 31.1187 27.5754 30.2435 26.7002C29.3683 25.825 28.1814 25.3334 26.9437 25.3334H22.277C21.0393 25.3334 19.8524 25.825 18.9772 26.7002C18.102 27.5754 17.6104 28.7624 17.6104 30V44" stroke="#4E5B3E" stroke-width="3.5" stroke-miterlimit="16"/>
</svg>
